<?xml version="1.0" standalone="no"?><!DOCTYPE svg PUBLIC "-//W3C//DTD SVG 1.1//EN" "http://www.w3.org/Graphics/SVG/1.1/DTD/svg11.dtd"><svg t="1537862839975" class="icon" style="" viewBox="0 0 1024 1024" version="1.1" xmlns="http://www.w3.org/2000/svg" p-id="17109" xmlns:xlink="http://www.w3.org/1999/xlink" width="48" height="48"><defs><style type="text/css"></style></defs><path d="M540.544 270.784C407.552 270.784 299.328 379.008 299.328 512c0 132.992 108.224 241.216 241.216 241.216 132.992 0 241.216-108.224 241.216-241.216C781.824 379.008 673.6 270.784 540.544 270.784zM540.544 684.288c-95.168 0-172.288-77.12-172.288-172.288 0-95.168 77.12-172.288 172.288-172.288 95.168 0 172.288 77.12 172.288 172.288C712.896 607.168 635.776 684.288 540.544 684.288zM540.544 201.856c19.072 0 34.432-15.424 34.432-34.432L574.976 98.432C575.04 79.424 559.616 64 540.544 64 521.536 64 506.112 79.424 506.112 98.432l0 68.928C506.112 186.432 521.536 201.856 540.544 201.856zM540.544 822.144c-19.072 0-34.432 15.424-34.432 34.432l0 68.928C506.112 944.576 521.536 960 540.544 960c19.072 0 34.432-15.424 34.432-34.432l0-68.928C575.04 837.568 559.616 822.144 540.544 822.144zM272.576 731.328l-48.704 48.704c-13.44 13.44-13.44 35.264 0 48.704 13.44 13.44 35.264 13.44 48.704 0l48.704-48.704c13.44-13.504 13.44-35.264 0-48.704C307.84 717.888 286.016 717.824 272.576 731.328zM230.4 512c0-19.072-15.424-34.432-34.432-34.432L127.04 477.568C107.968 477.568 92.544 492.928 92.544 512c0 19.072 15.424 34.432 34.432 34.432l68.928 0C214.976 546.432 230.4 531.072 230.4 512zM272.512 292.672c13.44 13.44 35.264 13.44 48.704 0 13.44-13.44 13.44-35.264 0-48.704L272.512 195.2c-13.44-13.44-35.264-13.44-48.768 0-13.44 13.44-13.44 35.264 0 48.704L272.512 292.672z" p-id="17110"></path><path d="M690.176 270.784C557.184 270.784 448.96 379.008 448.96 512c0 132.992 108.224 241.216 241.216 241.216 132.992 0 241.216-108.224 241.216-241.216C931.456 379.008 823.168 270.784 690.176 270.784z" p-id="17111"></path></svg>