<?xml version="1.0" standalone="no"?><!DOCTYPE svg PUBLIC "-//W3C//DTD SVG 1.1//EN" "http://www.w3.org/Graphics/SVG/1.1/DTD/svg11.dtd"><svg t="1538016927951" class="icon" style="" viewBox="0 0 1024 1024" version="1.1" xmlns="http://www.w3.org/2000/svg" p-id="1914" xmlns:xlink="http://www.w3.org/1999/xlink" width="48" height="48"><defs><style type="text/css"></style></defs><path d="M341.333333 85.333333l341.333333 0 85.333333 128 128 0q52.992 0 90.496 38.186667t37.504 91.178667l0 468.650667q0 52.992-37.504 90.154667t-90.496 37.162667l-768 0q-52.992 0-90.496-37.504t-37.504-90.496l0-468.650667q0-52.992 37.504-90.837333t90.496-37.845333l128 0zM512 341.333333q43.349333 0 82.816 16.981333t68.010667 45.482667 45.482667 68.010667 16.981333 82.816-16.981333 82.816-45.482667 68.010667-68.010667 45.482667-82.816 16.981333-82.816-16.981333-68.010667-45.482667-45.482667-68.010667-16.981333-82.816 16.981333-82.816 45.482667-68.010667 68.010667-45.482667 82.816-16.981333zM512 426.666667q-52.992 0-90.496 37.504t-37.504 90.496 37.504 90.496 90.496 37.504 90.496-37.504 37.504-90.496-37.504-90.496-90.496-37.504zM722.346667 298.666667l-83.669333-128-251.648 0-85.333333 128-173.653333 0q-17.664 0-30.165333 12.672t-12.501333 30.677333l0 468.650667q0 17.664 12.501333 30.165333t30.165333 12.501333l768 0q18.005333 0 30.336-12.16t12.330667-29.824l0-468.650667q0-18.005333-12.672-31.018667t-29.994667-13.013333l-173.653333 0z" p-id="1915"></path></svg>