<?xml version="1.0" standalone="no"?><!DOCTYPE svg PUBLIC "-//W3C//DTD SVG 1.1//EN" "http://www.w3.org/Graphics/SVG/1.1/DTD/svg11.dtd"><svg t="1537787019477" class="icon" style="" viewBox="0 0 1024 1024" version="1.1" xmlns="http://www.w3.org/2000/svg" p-id="20556" xmlns:xlink="http://www.w3.org/1999/xlink" width="48" height="48"><defs><style type="text/css"></style></defs><path d="M1001.631086 291.480973 1001.631086 623.42452C1001.631086 647.99315 981.691329 667.932907 957.1227 667.932907 932.531816 667.932907 912.614313 647.99315 912.614313 623.42452L912.614313 361.336886 556.54722 550.675563 556.54722 727.796687 541.258589 736.631602 556.54722 763.091838 556.54722 853.265829 596.382226 832.079837 596.738293 832.702954C604.171194 827.117152 613.295413 823.71226 623.3098 823.71226 647.87843 823.71226 667.818187 843.629763 667.818187 868.220647 667.818187 890.385823 651.550371 908.634262 630.319871 912.016899L554.455326 952.363752C553.854463 952.67531 553.209091 952.83109 552.608228 953.120394 545.642665 968.631567 530.131493 979.491613 512.038834 979.491613 499.888044 979.491613 488.894473 974.595691 480.860709 966.695452 479.837016 966.250368 478.768815 965.961064 477.767376 965.404709L47.371277 732.047238C40.027394 728.063737 34.419337 722.255393 30.45809 715.556881 30.168786 715.134051 29.901736 714.688967 29.612431 714.266138 29.367635 713.821054 29.100585 713.37597 28.878043 712.908632 24.872288 706.232374 22.446581 698.532423 22.446581 690.1871L22.446581 291.325194C20.198907 273.143518 28.677755 254.583521 45.323892 245.325776L476.654666 5.492335C494.524783-4.45529 515.977826-0.405026 529.552884 13.748641 537.608902 13.192286 545.887462 14.750079 553.52065 18.889359L973.568549 247.996279C975.17085 248.574888 976.461594 249.754361 977.997133 250.533257 979.532672 251.334408 981.068212 252.113305 982.470226 253.09249 988.145045 256.786686 993.285764 261.304287 996.779672 267.602224 1000.496122 274.345244 1002.009408 281.622365 1001.875882 288.788216 1001.898137 289.678383 1001.653341 290.590805 1001.631086 291.480973ZM111.463354 665.529454 467.530447 858.584581 467.530447 559.287935 111.463354 366.210554 111.463354 665.529454ZM511.571496 96.712273C509.635381 95.666326 507.966316 94.375583 506.252743 93.08484L154.881285 288.498911 507.320945 479.595669C509.012263 478.349434 510.681328 477.080945 512.617443 476.057252L864.255951 289.07752 511.571496 96.712273Z" p-id="20557"></path></svg>