<?xml version="1.0" standalone="no"?><!DOCTYPE svg PUBLIC "-//W3C//DTD SVG 1.1//EN" "http://www.w3.org/Graphics/SVG/1.1/DTD/svg11.dtd"><svg t="1540871350918" class="icon" style="" viewBox="0 0 1024 1024" version="1.1" xmlns="http://www.w3.org/2000/svg" p-id="1249" xmlns:xlink="http://www.w3.org/1999/xlink" width="128" height="128"><defs><style type="text/css"></style></defs><path d="M512 512m-512 0a512 512 0 1 0 1024 0 512 512 0 1 0-1024 0Z" fill="#e6f9fc" p-id="1250" data-spm-anchor-id="a313x.7781069.0.i2" class=""></path><path d="M768 576c0 70.4-57.6 128-128 128H409.6c-70.4 0-128-57.6-128-128 0-11.52 1.28-21.76 3.84-33.28v-2.56c1.28-5.12 2.56-8.96 5.12-14.08 0-1.28 1.28-1.28 1.28-2.56 2.56-5.12 3.84-8.96 6.4-12.8 2.56-5.12 5.12-8.96 8.96-12.8l1.28-1.28c6.4-8.96 14.08-16.64 23.04-23.04 3.84-3.84 8.96-6.4 14.08-8.96 61.44-35.84 139.52-14.08 174.08 47.36 7.68 12.8 12.8 26.88 15.36 40.96l-12.8-12.8c-5.12-5.12-12.8-5.12-17.92 0s-5.12 12.8 0 17.92l35.84 35.84c5.12 5.12 12.8 5.12 17.92 0l35.84-35.84c5.12-5.12 5.12-12.8 0-17.92s-12.8-5.12-17.92 0l-15.36 15.36C550.4 471.04 473.6 412.16 390.4 422.4c-15.36 1.28-29.44 6.4-43.52 11.52 14.08-98.56 104.96-166.4 202.24-152.32 88.32 12.8 153.6 88.32 153.6 177.92v3.84c40.96 24.32 65.28 66.56 65.28 112.64z" fill="#00c1de" p-id="1251" data-spm-anchor-id="a313x.7781069.0.i1" class=""></path></svg>