<?xml version="1.0" standalone="no"?><!DOCTYPE svg PUBLIC "-//W3C//DTD SVG 1.1//EN" "http://www.w3.org/Graphics/SVG/1.1/DTD/svg11.dtd"><svg t="1537863216870" class="icon" style="" viewBox="0 0 1024 1024" version="1.1" xmlns="http://www.w3.org/2000/svg" p-id="18762" xmlns:xlink="http://www.w3.org/1999/xlink" width="48" height="48"><defs><style type="text/css"></style></defs><path d="M1021.1 372l-21.2 22.2c-34.3 35.8-79.5 66.7-134.5 91.9V292.9l-4.6-0.1c0.1-4.8 0-9.7-0.2-14.5-0.1-3.7-0.2-7.4-0.2-11.2-10.5-88.7-114-174.5-240.8-199.7-51.8-10.1-109-15.5-165.6-15.5-79.3 0-156.3 10.4-222.7 30.1-74.3 22-133.1 54.6-174.8 96.6C26.4 209 8.3 242.3 2.8 277.3c-0.2 1.1-0.3 2.3-0.5 3.4H0.7V755l0.6 3.7c2 6.3 52.4 155.5 341 203.9 37.9 6.4 79.5 9.6 123.7 9.6 259.3 0 537.7-109.2 549.5-113.9l7.9-3.1-2.3-483.2zM157.7 136.9c0.6-0.3 1.2-0.6 1.7-0.9 64.9-32.4 144.7-50.7 226.5-57 21.7-1.6 43.9-2.5 66.7-2.5 55.3 0 111.3 5.3 162 15.4 114.8 22.7 211.9 101 221 178.2 6.3 53.8-29.9 100.3-104.8 134.7-69.1 31.7-148.3 48.5-228.9 48.5-72.5 0-143.1-13.4-198.8-37.9-57.1-25-95.5-60-108-98.5-12.5-38.4 10.4-69.9 31.9-89.6 12.1-11.1 26.7-21.3 43.1-30.4 1.2-0.6 2.3-1.3 3.5-1.9 0.3-0.1 0.5-0.3 0.8-0.4 22.9-12.2 49.4-22.3 78-29.9 0.4-0.1 0.7-0.2 1.1-0.3 1.3-0.3 2.6-0.7 3.9-1 34.8-8.7 72.3-13.5 109.8-13.5 52.1 0 101.9 9.5 144.1 27.4 65.9 28 98.8 67.7 90.2 109-10.5 50.6-86 103-194.3 103h-1.8c-124-0.7-194.2-43.4-207.1-82.8-8.7-26.8 9.7-47.3 26.7-59.9 32.6-24 77.6-36.2 133.8-36.2 45.9 0 82.2 8.5 82.5 8.6h0.1l5.8-24.1h-0.1c-4.1-1-41-9.5-88.3-9.5-61.5 0-111.5 13.9-148.6 41.3-32.8 24.3-45.8 56.2-35.6 87.6 16 49.2 93.6 99.2 230.6 99.9h1.9c110.2 0 204.2-52.8 218.6-122.8 11.1-54-27.1-103.8-104.8-136.9-44.7-19-97.4-29-152.6-29-50.1 0-101.2 8.1-147.7 23.4-45.6 15-83.8 35.8-110.4 60.2-37.9 34.7-51.7 75.8-38.7 115.5 14.7 45.3 58 85.7 121.7 113.6C351.8 463.9 426 478 502.1 478c84.3 0 167-17.5 239.2-50.6 46.2-21.2 79.6-47.5 99.3-78.3v147.7c-113.9 46.3-224.3 54.3-229 54.6-36.7 4.2-73.2 6.4-108.3 6.4-295.2 0-432.8-149.9-434.1-151.4-0.5-0.5-52.7-56.1-41.8-125.2 4.7-29.8 20.4-58.4 46.9-85.1 21.7-21.9 48.7-41.2 80-57.4 1.1-0.6 2.2-1.2 3.4-1.8z m188.7 801.2C88.8 894.9 31.2 767.2 25.5 752.8v-365c3.9 6.9 8.2 13.6 12.8 19.9h-1.8v145.8h24.8V433.8c13.1 12.5 41.6 37.1 85.9 62.6V773H172V509.8c27.3 13.9 56.6 26.1 87 36.2v134.7h24.8v-127c26.1 7.5 53.6 13.7 81.8 18.4v134.3h24.8V575.7c28.3 3.7 57.9 6 88 6.7v127h24.8V582.8c27-0.1 54.9-1.4 82.9-3.9v265.9H611V576.4c0.4 0 0.9-0.1 1.3-0.1 0.5 0 1-0.1 1.5-0.1 3.5-0.2 36-2.5 83.2-11.4v131.4h24.8V559.6c29.2-6.4 57.7-14.3 84.9-23.4v128.1h24.8V527.5c31.1-11.7 60.3-25.2 87-40.4v119.8h24.8V473.4h-2c20.2-12.9 38.8-26.9 55.2-41.6l1.9 406.5C949.8 856.6 696.3 947.2 464 947.2c-42.1 0-81.7-3.1-117.6-9.1z" p-id="18763"></path></svg>