<?xml version="1.0" standalone="no"?><!DOCTYPE svg PUBLIC "-//W3C//DTD SVG 1.1//EN" "http://www.w3.org/Graphics/SVG/1.1/DTD/svg11.dtd"><svg t="1537863182826" class="icon" style="" viewBox="0 0 1024 1024" version="1.1" xmlns="http://www.w3.org/2000/svg" p-id="18452" xmlns:xlink="http://www.w3.org/1999/xlink" width="48" height="48"><defs><style type="text/css"></style></defs><path d="M282.457251 0.01812h-48.211947A106.664883 106.664883 0 0 0 127.58042 106.683003v625.055317a20.905977 20.905977 0 0 0 2.985997 10.666988c6.399993 20.479978 26.026972 77.651915 85.331907 248.741728a42.665953 42.665953 0 0 0 42.665953 32.425964 42.665953 42.665953 0 0 0 42.665954-31.571965c61.011933-170.663813 80.638912-229.116749 85.331906-249.595727a20.905977 20.905977 0 0 0 3.412996-10.666988V106.683003A106.664883 106.664883 0 0 0 282.457251 0.01812z m4.266995 895.98402H228.27031a16188.229294 16188.229294 0 0 1-49.064946-142.929844H337.070191c-11.093988 32.851964-30.719966 87.890904-50.345945 142.929844z m-116.477872-789.319137a63.99893 63.99893 0 0 1 63.99893-63.99893h48.211947a63.99893 63.99893 0 0 1 63.99993 63.99893v603.72234h-48.212947V191.58791a21.332977 21.332977 0 0 0-42.665954 0v518.817433h-85.331906z m85.331906 871.238047l-12.373986-39.252957h28.159969zM875.087603 0.01812H533.759976a21.332977 21.332977 0 0 0-22.186976 21.332977v981.315926A21.332977 21.332977 0 0 0 532.905977 1024h341.327627a21.332977 21.332977 0 0 0 21.332976-21.332977V21.351097A21.332977 21.332977 0 0 0 875.086603 0.01812zM852.899627 981.334047H554.238954v-42.665954H703.56979a21.332977 21.332977 0 0 0 0-42.665953H554.239954V810.670233h63.99793a21.332977 21.332977 0 1 0 0-42.665953H554.239954v-85.331907H703.56979a21.332977 21.332977 0 0 0 0-42.665953H554.239954v-85.331907h63.99793a21.332977 21.332977 0 1 0 0-42.664953H554.239954v-85.331907H703.56979a21.332977 21.332977 0 0 0 0-42.665953H554.239954v-85.331907h63.99793a21.332977 21.332977 0 1 0 0-42.665953H554.239954V170.680933H703.56979a21.332977 21.332977 0 0 0 0-42.665953H554.239954V42.684073H852.899627z" p-id="18453"></path></svg>