<?xml version="1.0" standalone="no"?><!DOCTYPE svg PUBLIC "-//W3C//DTD SVG 1.1//EN" "http://www.w3.org/Graphics/SVG/1.1/DTD/svg11.dtd"><svg t="1537789490652" class="icon" style="" viewBox="0 0 1024 1024" version="1.1" xmlns="http://www.w3.org/2000/svg" p-id="37412" xmlns:xlink="http://www.w3.org/1999/xlink" width="48" height="48"><defs><style type="text/css"></style></defs><path d="M1024 510.829714A512 512 0 0 0 513.097143 0.073143L512.585143 0h-1.755429A512 512 0 0 0 0.073143 510.902857L0 511.414857v1.755429a512 512 0 0 0 510.829714 510.756571l0.585143 0.073143h1.755429a512 512 0 0 0 510.756571-510.829714L1024 512.585143v-1.170286-0.585143z m-463.213714 438.052572V779.702857a48.128 48.128 0 0 0-48.274286-48.274286h-1.097143a48.274286 48.274286 0 0 0-48.201143 48.274286v169.106286a440.32 440.32 0 0 1-388.096-388.096H244.297143c26.843429 0 48.274286-21.577143 48.274286-48.274286v-1.097143a48.274286 48.274286 0 0 0-48.274286-48.201143H75.117714a440.32 440.32 0 0 1 388.096-388.096V244.297143c0 26.843429 21.577143 48.274286 48.274286 48.274286h1.097143a48.274286 48.274286 0 0 0 48.201143-48.274286V75.117714a440.32 440.32 0 0 1 388.096 388.096H779.702857a48.128 48.128 0 0 0-48.274286 48.274286v1.097143a48.274286 48.274286 0 0 0 48.274286 48.201143h169.106286a440.32 440.32 0 0 1-388.096 388.096z" p-id="37413"></path></svg>