<?xml version="1.0" standalone="no"?><!DOCTYPE svg PUBLIC "-//W3C//DTD SVG 1.1//EN" "http://www.w3.org/Graphics/SVG/1.1/DTD/svg11.dtd"><svg t="1537787251833" class="icon" style="" viewBox="0 0 1024 1024" version="1.1" xmlns="http://www.w3.org/2000/svg" p-id="24217" xmlns:xlink="http://www.w3.org/1999/xlink" width="48" height="48"><defs><style type="text/css"></style></defs><path d="M880.64 945.493333H143.36c-35.498667 0-64.853333-29.354667-64.853333-64.853333V144.042667c0-35.498667 29.354667-64.853333 64.853333-64.853334h613.717333l188.416 187.733334V880.64c0 35.498667-29.354667 64.853333-64.853333 64.853333zM143.36 120.149333c-12.970667 0-23.893333 10.922667-23.893333 23.893334V880.64c0 12.970667 10.922667 23.893333 23.893333 23.893333h737.28c12.970667 0 23.893333-10.922667 23.893333-23.893333V283.306667l-163.84-163.157334H143.36z" p-id="24218"></path><path d="M665.6 367.957333H357.717333c-27.306667 0-49.834667-22.528-49.834666-49.834666v-238.933334h407.552v238.933334c0 27.306667-22.528 49.834667-49.834667 49.834666zM348.842667 120.149333v197.973334c0 5.461333 4.778667 8.874667 8.874666 8.874666h307.882667c4.778667 0 8.874667-4.096 8.874667-8.874666v-197.973334H348.842667zM789.845333 944.810667H234.837333V548.181333c0-27.306667 22.528-49.834667 49.834667-49.834666h454.656c27.306667 0 50.517333 22.528 50.517333 49.834666v396.629334z m-514.048-40.96h473.088V548.181333c0-4.096-4.096-8.874667-9.557333-8.874666H284.672c-4.778667 0-8.874667 4.096-8.874667 8.874666v355.669334z" p-id="24219"></path><path d="M568.661333 99.669333h40.96v247.808h-40.96z" p-id="24220"></path></svg>