<?xml version="1.0" standalone="no"?><!DOCTYPE svg PUBLIC "-//W3C//DTD SVG 1.1//EN" "http://www.w3.org/Graphics/SVG/1.1/DTD/svg11.dtd"><svg t="1535531251658" class="icon" style="" viewBox="0 0 1208 1024" version="1.1" xmlns="http://www.w3.org/2000/svg" p-id="9187" xmlns:xlink="http://www.w3.org/1999/xlink" width="56.625" height="48"><defs><style type="text/css"></style></defs><path d="M 437.706 426.785 h -0.09405 a 37.9374 37.9374 0 1 0 0.09405 0 Z" p-id="9188"></path><path d="M 1087.11 557.373 h -62.1436 a 11.2507 11.2507 0 0 0 -0.1881 -2.12788 L 958.862 169.934 a 37.3849 37.3849 0 0 0 -26.1812 -29.3906 l -263.34 -77.0388 a 36.9969 36.9969 0 0 0 -39.7832 13.167 l -107.723 141.781 l -36.0212 -31.6714 a 37.044 37.044 0 0 0 -24.3708 -9.14633 h -131.67 a 37.2908 37.2908 0 0 0 -34.5987 23.9475 L 163.28 548.297 v 0.117563 a 41.3115 41.3115 0 0 0 -2.01032 8.95825 H 99.032 a 37.1615 37.1615 0 0 0 0 74.3112 H 148.996 l 77.5912 172.934 c 0.670106 14.2368 16.6939 25.2525 37.0322 25.2525 h 0.387956 a 99.6459 99.6459 0 0 0 -4.50264 28.9204 c 0 56.912 46.1785 103.208 102.95 103.208 s 102.961 -46.2961 102.961 -103.208 a 99.3994 99.3994 0 0 0 -4.5144 -28.9204 H 725.17 a 100.927 100.927 0 0 0 -4.43211 28.9204 c 0 56.912 46.1903 103.208 102.961 103.208 s 102.973 -46.2961 102.973 -103.208 a 99.7753 99.7753 0 0 0 -4.50264 -28.9204 h 0.387956 c 19.9856 0 36.3385 -11.2507 37.0322 -25.2525 l 77.5912 -172.934 H 1087.15 a 36.8089 36.8089 0 0 0 26.24 -10.8981 A 37.1968 37.1968 0 0 0 1087.15 557.373 Z M 852.608 858.78 a 28.8263 28.8263 0 1 1 -28.8381 -28.9204 a 28.9792 28.9792 0 0 1 28.8381 28.9204 Z m -461.21 0 a 28.8263 28.8263 0 1 1 -28.8381 -28.9204 a 28.9674 28.9674 0 0 1 28.8734 28.9204 Z M 239.12 557.373 l 116.022 -305.533 h 92.2518 l 55.3132 48.6473 a 38.1138 38.1138 0 0 0 28.0975 9.01705 a 36.7383 36.7383 0 0 0 25.7814 -14.5072 l 116.281 -153.102 l 216.844 63.3897 l 60.4742 352.088 Z m 716.943 74.2995 l -55.6306 123.899 H 285.957 l -55.5835 -123.899 Z" p-id="9189"></path><path d="M 739.83 342.258 a 36.4444 36.4444 0 0 0 -50.2932 0 l -63.0253 60.7915 a 33.7404 33.7404 0 0 0 0 48.8943 a 36.4444 36.4444 0 0 0 50.305 0 l 37.9021 -36.515 l 37.961 36.5855 a 36.4444 36.4444 0 0 0 50.258 0 a 33.7404 33.7404 0 0 0 0 -48.9412 Z" p-id="9190"></path></svg>