<?xml version="1.0" standalone="no"?><!DOCTYPE svg PUBLIC "-//W3C//DTD SVG 1.1//EN" "http://www.w3.org/Graphics/SVG/1.1/DTD/svg11.dtd"><svg t="1535530601351" class="icon" style="" viewBox="0 0 1024 1024" version="1.1" xmlns="http://www.w3.org/2000/svg" p-id="2095" xmlns:xlink="http://www.w3.org/1999/xlink" width="48" height="48"><defs><style type="text/css"></style></defs><path d="M877.7 801.8v82.8h41.4V926H104.9v-41.4h41.4v-82.8h41.4V415.4H105L512 98l407.1 317.4h-82.7v386.4h41.3zM512.1 153.3L229.2 373.9H795L512.1 153.3z m-283 262.1v386.4h96.6V415.4h-96.6z m138 0v386.4h124.2V415.4H367.1z m165.6 0v386.4h124.2V415.4H532.7z m165.6 0v386.4h96.6V415.4h-96.6zM187.7 843.2v41.4h648.6v-41.4H187.7z m324.3-621c34.3 0 62.1 27.8 62.1 62.1s-27.8 62.1-62.1 62.1-62.1-27.8-62.1-62.1 27.8-62.1 62.1-62.1z m0 82.8c11.4 0 20.7-9.3 20.7-20.7 0-11.4-9.3-20.7-20.7-20.7-11.4 0-20.7 9.3-20.7 20.7 0 11.4 9.3 20.7 20.7 20.7z" p-id="2096"></path></svg>