<?xml version="1.0" standalone="no"?><!DOCTYPE svg PUBLIC "-//W3C//DTD SVG 1.1//EN" "http://www.w3.org/Graphics/SVG/1.1/DTD/svg11.dtd"><svg t="1535530717191" class="icon" style="" viewBox="0 0 1024 1024" version="1.1" xmlns="http://www.w3.org/2000/svg" p-id="2383" xmlns:xlink="http://www.w3.org/1999/xlink" width="48" height="48"><defs><style type="text/css"></style></defs><path d="M875.737452 928.123552l-127.505792 0-26.687259-60.293436-456.648649 0-26.687259 60.293436-127.505792 0 130.471042-188.787645q-38.548263-10.872587-63.258687-43.490347t-24.710425-75.119691l0-432.926641q0-25.698842 13.343629-48.926641t32.617761-42.501931 39.53668-33.111969 35.088803-20.756757 32.617761-14.826255 42.501931-13.837838 57.328185-9.88417 76.108108-3.953668q49.420849 0 86.980695 4.447876t65.72973 11.861004 49.420849 16.803089 39.042471 19.274131 37.559846 22.733591 35.583012 29.158301 26.19305 37.065637 10.378378 46.455598l0 432.926641q0 42.501931-25.204633 75.119691t-63.752896 43.490347zM400.30888 64.247104q-12.849421 0-21.745174 8.895753t-8.895753 22.733591q0 12.849421 8.895753 21.745174t21.745174 8.895753l187.799228 0q12.849421 0 21.745174-8.895753t8.895753-21.745174q0-13.837838-8.895753-22.733591t-21.745174-8.895753l-187.799228 0zM214.486486 373.621622l556.478764 0 0-185.822394-556.478764 0 0 185.822394zM246.11583 694.857143q17.791506 0 30.640927-12.849421t12.849421-30.640927q0-18.779923-12.849421-31.629344t-30.640927-12.849421q-18.779923 0-31.629344 12.849421t-12.849421 31.629344q0 17.791506 12.849421 30.640927t31.629344 12.849421zM692.880309 806.548263l-27.675676-62.27027-343.969112 0-28.664093 62.27027 400.30888 0zM695.84556 651.366795q0 17.791506 12.849421 30.640927t31.629344 12.849421 31.629344-12.849421 12.849421-30.640927q0-18.779923-12.849421-31.629344t-31.629344-12.849421-31.629344 12.849421-12.849421 31.629344z" p-id="2384"></path></svg>