<?xml version="1.0" standalone="no"?><!DOCTYPE svg PUBLIC "-//W3C//DTD SVG 1.1//EN" "http://www.w3.org/Graphics/SVG/1.1/DTD/svg11.dtd"><svg t="1537246218988" class="icon" style="" viewBox="0 0 1024 1024" version="1.1" xmlns="http://www.w3.org/2000/svg" p-id="1489" xmlns:xlink="http://www.w3.org/1999/xlink" width="48" height="48"><defs><style type="text/css"></style></defs><path d="M904.533 576a34.133 34.133 0 1 1 68.267 0v256a34.133 34.133 0 0 1-34.133 34.133H85.333A34.133 34.133 0 0 1 51.2 832V576a34.133 34.133 0 1 1 68.267 0v221.867h785.066zM512 157.867a34.133 34.133 0 0 1 29.013 16.213L697.6 330.667a34.133 34.133 0 0 1-48.213 48.213L546.133 275.627V665.6a34.133 34.133 0 0 1-68.266 0V273.067l-106.24 106.24a34.133 34.133 0 0 1-48.214-48.214L486.4 167.68a34.133 34.133 0 0 1 25.6-9.813z" p-id="1490" fill="#ffffff"></path></svg>