<?xml version="1.0" standalone="no"?><!DOCTYPE svg PUBLIC "-//W3C//DTD SVG 1.1//EN" "http://www.w3.org/Graphics/SVG/1.1/DTD/svg11.dtd"><svg t="1535531867698" class="icon" style="" viewBox="0 0 1024 1024" version="1.1" xmlns="http://www.w3.org/2000/svg" p-id="1621" xmlns:xlink="http://www.w3.org/1999/xlink" width="48" height="48"><defs><style type="text/css"></style></defs><path d="M234.7 239.9h18.6V595h-18.6V239.9zM549.6 277" p-id="1622"></path><path d="M234.7 239.9h152.5v18.5H234.7v-18.5z m537.2 0h18.5V595h-18.5V239.9z m0 0" p-id="1623"></path><path d="M513.5 83.6l110.2 88.3V597H401.4V173l112.1-89.4m0-23.7L382.9 164.2v430.9h259.3v-432L513.5 59.9z m0 0M277.5 305.3H354v18.6h-76.5zM277.5 359.9H354v18.6h-76.5zM277.5 414.6H354v18.6h-76.5zM277.5 469.3H354v18.6h-76.5zM277.5 523.9H354v18.6h-76.5z" p-id="1624"></path><path d="M419.6 305.3h185.9v18.6H419.6zM419.6 250.6h185.9v18.6H419.6zM452.4 196h32.8v18.6h-32.8zM496.1 196h32.8v18.6h-32.8zM539.9 196h32.8v18.6h-32.8zM419.6 359.9h185.9v18.6H419.6zM419.6 414.6h185.9v18.6H419.6zM419.6 469.3h185.9v18.6H419.6zM419.6 523.9h185.9v18.6H419.6zM671.1 305.3h76.5v18.6h-76.5zM671.1 359.9h76.5v18.6h-76.5zM671.1 414.6h76.5v18.6h-76.5zM671.1 469.3h76.5v18.6h-76.5zM671.1 523.9h76.5v18.6h-76.5zM513.3 969.3c-51.7 0-101.9-9.9-149.2-29.3-45.8-18.9-87-45.9-122.3-80.4-73-71.2-113.2-166.4-113.2-268h19.6c0 197.5 163.8 358.1 365.1 358.1 200.2 0 363.1-160.7 363.1-358.1H896c0 101.7-39.8 196.9-112.2 268-71.9 70.8-168 109.7-270.5 109.7z" p-id="1625"></path><path d="M886.3 603.7H138.4c-5.4 0-9.8-4.4-9.8-9.8s4.4-9.8 9.8-9.8h747.9c5.4 0 9.8 4.4 9.8 9.8s-4.4 9.8-9.8 9.8z" p-id="1626"></path><path d="M421.3 951.9c-2.8 0-5.6-1.3-7.5-3.6-26.7-33.8-47.7-73.5-62.6-118-11.9-35.5-19.9-74.1-23.8-114.7-6.7-69.2 0.7-119.7 1-121.9 0.8-5.2 5.7-8.8 10.9-8.1 5.2 0.8 8.8 5.7 8.1 10.9-0.1 0.5-7.4 50.8-0.8 117.7 6 61.3 25.1 149.6 82.4 222.1 3.3 4.2 2.6 10.2-1.6 13.5-2 1.4-4 2.1-6.1 2.1zM607.3 951.9c-2.1 0-4.2-0.7-5.9-2.1-4.2-3.3-4.9-9.3-1.6-13.5 57.4-72.7 76.5-161.2 82.4-222.7 6.5-66.8-0.8-116.7-0.9-117.2-0.8-5.2 2.8-10.1 8.1-10.9 5.2-0.8 10.1 2.8 10.9 8.1 0.3 2.1 7.7 52.7 1 121.9-3.9 40.7-11.9 79.2-23.8 114.7-14.9 44.5-36 84.2-62.6 118-1.9 2.4-4.7 3.7-7.6 3.7zM518.6 969.1c-5.3 0-9.6-4.3-9.6-9.6 0.4-135.7 0.6-340.5-0.2-354.4-0.1-0.5-0.1-1.1-0.1-1.6 0-5.3 4.3-9.6 9.6-9.6 2.5 0 5 1 6.8 2.8 2.8 2.8 2.9 5.5 3 10.8 0.1 2.6 0.1 6.5 0.2 11.6 0.1 9.3 0.2 23 0.2 40.6 0.1 29.6 0.1 70.8 0 122.4-0.1 87.8-0.3 176.7-0.3 177.6 0 5.2-4.3 9.4-9.6 9.4zM509 605.8c0.8 3.7 4.4 7.3 9.3 7.3-4.5 0-8.3-3.1-9.3-7.3z" p-id="1627"></path><path d="M808.4 820.6c-1.3 0-2.5-0.2-3.8-0.8C642.3 751.5 492.3 755 395 770c-105.7 16.3-173.7 49.2-174.4 49.6-4.8 2.4-10.7 0.4-13.1-4.5s-0.4-10.7 4.5-13.1c2.8-1.4 70.9-34.4 179.3-51.2 63.6-9.9 127.8-12 190.9-6.4 78.9 7 156.3 26.3 229.9 57.3 5 2.1 7.3 7.8 5.2 12.8a9.58 9.58 0 0 1-8.9 6.1zM638.3 239.7h141.2v18.6H638.3z" p-id="1628"></path></svg>